<mxfile host="app.diagrams.net" agent="Mozilla/5.0 (Windows NT 10.0; Win64; x64) AppleWebKit/537.36 (KHTML, like Gecko) Chrome/129.0.0.0 Safari/537.36" version="24.7.16">
  <diagram id="C5RBs43oDa-KdzZeNtuy" name="Page-1">
    <mxGraphModel dx="875" dy="464" grid="1" gridSize="10" guides="1" tooltips="1" connect="1" arrows="1" fold="1" page="1" pageScale="1" pageWidth="827" pageHeight="1169" math="0" shadow="0">
      <root>
        <mxCell id="WIyWlLk6GJQsqaUBKTNV-0" />
        <mxCell id="WIyWlLk6GJQsqaUBKTNV-1" parent="WIyWlLk6GJQsqaUBKTNV-0" />
        <mxCell id="OD3RCJaRd5cZdS0QU-Aj-3" value="" style="edgeStyle=orthogonalEdgeStyle;rounded=0;orthogonalLoop=1;jettySize=auto;html=1;" edge="1" parent="WIyWlLk6GJQsqaUBKTNV-1" source="OD3RCJaRd5cZdS0QU-Aj-1" target="OD3RCJaRd5cZdS0QU-Aj-2">
          <mxGeometry relative="1" as="geometry" />
        </mxCell>
        <mxCell id="OD3RCJaRd5cZdS0QU-Aj-16" style="edgeStyle=orthogonalEdgeStyle;rounded=0;orthogonalLoop=1;jettySize=auto;html=1;" edge="1" parent="WIyWlLk6GJQsqaUBKTNV-1" source="OD3RCJaRd5cZdS0QU-Aj-1">
          <mxGeometry relative="1" as="geometry">
            <mxPoint x="560" y="105" as="targetPoint" />
          </mxGeometry>
        </mxCell>
        <mxCell id="OD3RCJaRd5cZdS0QU-Aj-1" value="&lt;p&gt;&lt;font data-font-src=&quot;https://fonts.googleapis.com/css?family=Roboto&quot; face=&quot;Roboto&quot;&gt;&lt;b&gt;Project Deliverables&lt;/b&gt;&lt;/font&gt;&lt;/p&gt;" style="rounded=1;whiteSpace=wrap;html=1;" vertex="1" parent="WIyWlLk6GJQsqaUBKTNV-1">
          <mxGeometry x="274" y="90" width="120" height="30" as="geometry" />
        </mxCell>
        <mxCell id="OD3RCJaRd5cZdS0QU-Aj-5" value="" style="edgeStyle=orthogonalEdgeStyle;rounded=0;orthogonalLoop=1;jettySize=auto;html=1;" edge="1" parent="WIyWlLk6GJQsqaUBKTNV-1" source="OD3RCJaRd5cZdS0QU-Aj-2">
          <mxGeometry relative="1" as="geometry">
            <mxPoint x="214" y="250" as="targetPoint" />
            <Array as="points">
              <mxPoint x="334" y="220" />
              <mxPoint x="214" y="220" />
            </Array>
          </mxGeometry>
        </mxCell>
        <mxCell id="OD3RCJaRd5cZdS0QU-Aj-9" style="edgeStyle=orthogonalEdgeStyle;rounded=0;orthogonalLoop=1;jettySize=auto;html=1;entryX=0.5;entryY=0;entryDx=0;entryDy=0;" edge="1" parent="WIyWlLk6GJQsqaUBKTNV-1" source="OD3RCJaRd5cZdS0QU-Aj-2">
          <mxGeometry relative="1" as="geometry">
            <mxPoint x="454" y="250" as="targetPoint" />
            <Array as="points">
              <mxPoint x="334" y="220" />
              <mxPoint x="454" y="220" />
            </Array>
          </mxGeometry>
        </mxCell>
        <mxCell id="OD3RCJaRd5cZdS0QU-Aj-13" style="edgeStyle=orthogonalEdgeStyle;rounded=0;orthogonalLoop=1;jettySize=auto;html=1;entryX=0.5;entryY=0;entryDx=0;entryDy=0;" edge="1" parent="WIyWlLk6GJQsqaUBKTNV-1" source="OD3RCJaRd5cZdS0QU-Aj-2" target="OD3RCJaRd5cZdS0QU-Aj-6">
          <mxGeometry relative="1" as="geometry" />
        </mxCell>
        <mxCell id="OD3RCJaRd5cZdS0QU-Aj-2" value="&lt;font data-font-src=&quot;https://fonts.googleapis.com/css?family=Roboto&quot; face=&quot;Roboto&quot;&gt;&lt;b&gt;Proof Of Concept&lt;/b&gt;&lt;/font&gt;" style="whiteSpace=wrap;html=1;rounded=1;fillColor=#dae8fc;strokeColor=#000000;gradientColor=none;opacity=40;" vertex="1" parent="WIyWlLk6GJQsqaUBKTNV-1">
          <mxGeometry x="274" y="180" width="120" height="20" as="geometry" />
        </mxCell>
        <mxCell id="OD3RCJaRd5cZdS0QU-Aj-4" value="&lt;font style=&quot;font-size: 11px;&quot; data-font-src=&quot;https://fonts.googleapis.com/css?family=Roboto&quot; face=&quot;Roboto&quot;&gt;Ensured Rigidity&lt;/font&gt;" style="whiteSpace=wrap;html=1;rounded=1;" vertex="1" parent="WIyWlLk6GJQsqaUBKTNV-1">
          <mxGeometry x="170" y="250" width="90" height="20" as="geometry" />
        </mxCell>
        <mxCell id="OD3RCJaRd5cZdS0QU-Aj-6" value="&lt;font face=&quot;Roboto&quot;&gt;&lt;span style=&quot;font-size: 11px;&quot;&gt;Optimized Structure&lt;/span&gt;&lt;/font&gt;" style="whiteSpace=wrap;html=1;rounded=1;" vertex="1" parent="WIyWlLk6GJQsqaUBKTNV-1">
          <mxGeometry x="279" y="250" width="110" height="20" as="geometry" />
        </mxCell>
        <mxCell id="OD3RCJaRd5cZdS0QU-Aj-8" value="&lt;span style=&quot;font-size: 11px;&quot;&gt;&lt;font data-font-src=&quot;https://fonts.googleapis.com/css?family=Roboto&quot; face=&quot;Roboto&quot;&gt;Coworking Robots&lt;/font&gt;&lt;/span&gt;" style="whiteSpace=wrap;html=1;rounded=1;" vertex="1" parent="WIyWlLk6GJQsqaUBKTNV-1">
          <mxGeometry x="410" y="250" width="110" height="20" as="geometry" />
        </mxCell>
        <mxCell id="OD3RCJaRd5cZdS0QU-Aj-14" value="&lt;b&gt;&lt;font data-font-src=&quot;https://fonts.googleapis.com/css?family=Roboto&quot; face=&quot;Roboto&quot;&gt;Model Evaluation&lt;/font&gt;&lt;/b&gt;" style="rounded=1;whiteSpace=wrap;html=1;fillColor=none;strokeColor=none;gradientColor=none;opacity=40;" vertex="1" parent="WIyWlLk6GJQsqaUBKTNV-1">
          <mxGeometry x="585" y="320" width="120" height="20" as="geometry" />
        </mxCell>
        <mxCell id="OD3RCJaRd5cZdS0QU-Aj-26" style="edgeStyle=orthogonalEdgeStyle;rounded=0;orthogonalLoop=1;jettySize=auto;html=1;exitX=0.5;exitY=1;exitDx=0;exitDy=0;entryX=0.5;entryY=0;entryDx=0;entryDy=0;" edge="1" parent="WIyWlLk6GJQsqaUBKTNV-1" source="OD3RCJaRd5cZdS0QU-Aj-17" target="OD3RCJaRd5cZdS0QU-Aj-14">
          <mxGeometry relative="1" as="geometry" />
        </mxCell>
        <mxCell id="OD3RCJaRd5cZdS0QU-Aj-17" value="&lt;font face=&quot;Roboto&quot;&gt;Structural Design&lt;/font&gt;" style="rounded=1;whiteSpace=wrap;html=1;fillColor=#EDF6FC;strokeColor=#040608;strokeWidth=2;opacity=90;" vertex="1" parent="WIyWlLk6GJQsqaUBKTNV-1">
          <mxGeometry x="570" y="90" width="150" height="32.5" as="geometry" />
        </mxCell>
        <mxCell id="OD3RCJaRd5cZdS0QU-Aj-18" value="&lt;font color=&quot;#00060a&quot; data-font-src=&quot;https://fonts.googleapis.com/css?family=Roboto&quot; face=&quot;Roboto&quot;&gt;Analysis &amp;amp; Optimization&lt;/font&gt;" style="rounded=1;whiteSpace=wrap;html=1;fillColor=#D7DFE2;fontColor=#ffffff;strokeColor=#00060A;strokeWidth=2;" vertex="1" parent="WIyWlLk6GJQsqaUBKTNV-1">
          <mxGeometry x="570" y="140" width="150" height="32.5" as="geometry" />
        </mxCell>
        <mxCell id="OD3RCJaRd5cZdS0QU-Aj-19" value="&lt;font color=&quot;#00060a&quot;&gt;Robotic Assembly&lt;/font&gt;" style="rounded=1;whiteSpace=wrap;html=1;strokeWidth=2;fillColor=#FFEDED;fontColor=#ffffff;strokeColor=#00060A;" vertex="1" parent="WIyWlLk6GJQsqaUBKTNV-1">
          <mxGeometry x="570" y="190" width="150" height="32.5" as="geometry" />
        </mxCell>
        <mxCell id="OD3RCJaRd5cZdS0QU-Aj-25" value="&lt;font data-font-src=&quot;https://fonts.googleapis.com/css?family=Roboto&quot; face=&quot;Roboto&quot; color=&quot;#00060a&quot;&gt;Interace &amp;amp; Cohesion&lt;/font&gt;" style="rounded=1;whiteSpace=wrap;html=1;strokeWidth=2;fillColor=#E6FFCC;fontColor=#ffffff;strokeColor=#00060A;" vertex="1" parent="WIyWlLk6GJQsqaUBKTNV-1">
          <mxGeometry x="570" y="237.5" width="150" height="32.5" as="geometry" />
        </mxCell>
      </root>
    </mxGraphModel>
  </diagram>
</mxfile>
